<svg width="1604" height="515" viewBox="0 0 1604 515" fill="none" xmlns="http://www.w3.org/2000/svg">
<circle cx="1539" cy="338.138" r="64.9366" fill="#7952B3"/>
<path d="M131.691 354.349C141.821 354.349 149.874 350.194 155.848 341.882C161.822 333.31 164.809 320.582 164.809 303.699C164.809 269.932 153.77 253.048 131.691 253.048C122.86 253.048 115.068 256.035 108.314 262.01C101.821 267.984 98.5737 274.737 98.5737 282.27V325.128C98.5737 332.661 101.821 339.414 108.314 345.388C115.068 351.362 122.86 354.349 131.691 354.349ZM158.965 198.502C182.861 198.502 201.823 207.593 215.849 225.775C229.875 243.698 236.889 269.672 236.889 303.699C236.889 336.946 229.486 362.791 214.68 381.233C200.135 399.675 181.563 408.896 158.965 408.896C134.029 408.896 113.509 399.156 97.4049 379.675C97.1451 379.415 96.8854 379.285 96.6256 379.285C96.3659 379.285 96.236 379.415 96.236 379.675V382.792C95.9763 389.026 93.6385 394.35 89.2229 398.766C84.8072 402.922 79.4824 405 73.2485 405H48.7024C42.7283 405 37.5333 402.792 33.1177 398.376C28.702 393.961 26.4941 388.766 26.4941 382.792V134.994C26.4941 129.02 28.702 123.825 33.1177 119.409C37.5333 114.993 42.7283 112.785 48.7024 112.785H78.3135C84.2877 112.785 89.4826 114.993 93.8983 119.409C98.314 123.825 100.522 129.02 100.522 134.994V221.489C100.522 221.749 100.652 221.879 100.911 221.879C101.171 221.879 101.431 221.749 101.691 221.489C119.094 206.164 138.185 198.502 158.965 198.502ZM381.59 284.218C383.927 284.218 385.096 283.049 385.096 280.711C384.836 268.763 382.239 260.191 377.304 254.997C372.628 249.802 365.485 247.204 355.875 247.204C345.745 247.204 338.082 249.802 332.887 254.997C327.952 259.932 324.835 268.633 323.536 281.101C323.536 283.179 324.575 284.218 326.653 284.218H381.59ZM353.927 198.502C419.902 198.502 453.02 233.308 453.28 302.92C453.28 309.154 450.942 314.478 446.266 318.894C441.591 323.05 436.006 325.128 429.513 325.128H327.433C325.095 325.128 324.186 326.297 324.705 328.635C327.043 339.544 332.108 347.206 339.9 351.622C347.952 356.038 360.42 358.246 377.304 358.246C387.953 358.246 400.941 356.687 416.266 353.57C421.72 352.271 426.656 353.44 431.071 357.077C435.487 360.454 437.695 364.999 437.695 370.713V376.947C437.695 383.441 435.617 389.415 431.461 394.87C427.565 400.065 422.5 403.182 416.266 404.221C400.421 407.338 383.538 408.896 365.615 408.896C328.731 408.896 300.289 399.935 280.289 382.012C260.548 363.83 250.678 337.726 250.678 303.699C250.678 269.932 259.509 243.957 277.172 225.775C294.834 207.593 320.419 198.502 353.927 198.502ZM616.643 210.19C622.617 210.19 627.812 212.398 632.228 216.814C636.643 221.229 638.851 226.424 638.851 232.399V238.632C638.851 244.607 636.643 249.802 632.228 254.217C627.812 258.633 622.617 260.841 616.643 260.841H581.967C579.629 260.841 578.46 262.01 578.46 264.347V319.284C578.46 334.868 579.759 344.609 582.356 348.505C584.954 352.401 590.798 354.349 599.889 354.349C603.526 354.349 607.941 353.96 613.136 353.181C618.591 352.401 623.526 353.83 627.942 357.466C632.617 360.843 634.955 365.259 634.955 370.713V380.844C634.955 387.337 632.877 393.182 628.721 398.376C624.825 403.312 619.76 406.169 613.526 406.948C604.435 408.247 593.395 408.896 580.408 408.896C552.615 408.896 533.004 402.922 521.576 390.974C510.147 379.025 504.432 357.726 504.432 327.076V264.347C504.432 262.01 503.264 260.841 500.926 260.841H485.731C479.756 260.841 474.562 258.633 470.146 254.217C465.73 249.802 463.522 244.607 463.522 238.632V232.399C463.522 226.424 465.73 221.229 470.146 216.814C474.562 212.398 479.756 210.19 485.731 210.19H500.926C503.264 210.19 504.432 209.021 504.432 206.684V158.371C504.432 152.397 506.64 147.202 511.056 142.786C515.472 138.37 520.667 136.163 526.641 136.163H556.252C562.226 136.163 567.421 138.37 571.837 142.786C576.252 147.202 578.46 152.397 578.46 158.371V206.684C578.46 209.021 579.629 210.19 581.967 210.19H616.643ZM737.729 202.398C743.703 202.398 748.898 204.606 753.314 209.021C757.73 213.437 759.938 218.632 759.938 224.606V382.792C759.938 388.766 757.73 393.961 753.314 398.376C748.898 402.792 743.703 405 737.729 405H704.222C698.248 405 693.053 402.792 688.637 398.376C684.221 393.961 682.014 388.766 682.014 382.792V224.606C682.014 218.632 684.221 213.437 688.637 209.021C693.053 204.606 698.248 202.398 704.222 202.398H737.729ZM737.729 112.785C743.703 112.785 748.898 114.993 753.314 119.409C757.73 123.825 759.938 129.02 759.938 134.994V145.124C759.938 151.098 757.73 156.293 753.314 160.709C748.898 165.124 743.703 167.332 737.729 167.332H704.222C698.248 167.332 693.053 165.124 688.637 160.709C684.221 156.293 682.014 151.098 682.014 145.124V134.994C682.014 129.02 684.221 123.825 688.637 119.409C693.053 114.993 698.248 112.785 704.222 112.785H737.729ZM960.284 202.398C966.258 202.398 971.453 204.606 975.869 209.021C980.285 213.437 982.492 218.632 982.492 224.606V230.84C982.492 245.646 977.687 258.633 968.076 269.802L897.166 353.181C896.906 353.44 896.776 353.7 896.776 353.96C896.776 354.22 896.906 354.349 897.166 354.349H960.284C966.258 354.349 971.453 356.557 975.869 360.973C980.285 365.389 982.492 370.584 982.492 376.558V382.792C982.492 388.766 980.285 393.961 975.869 398.376C971.453 402.792 966.258 405 960.284 405H825.476C819.502 405 814.307 402.792 809.891 398.376C805.475 393.961 803.267 388.766 803.267 382.792V376.558C803.267 361.752 808.073 348.765 817.683 337.596L888.594 254.217C888.854 253.958 888.984 253.698 888.984 253.438C888.984 253.178 888.854 253.048 888.594 253.048H825.476C819.502 253.048 814.307 250.841 809.891 246.425C805.475 242.009 803.267 236.814 803.267 230.84V224.606C803.267 218.632 805.475 213.437 809.891 209.021C814.307 204.606 819.502 202.398 825.476 202.398H960.284ZM1131.39 284.218C1133.73 284.218 1134.9 283.049 1134.9 280.711C1134.64 268.763 1132.04 260.191 1127.11 254.997C1122.43 249.802 1115.29 247.204 1105.68 247.204C1095.55 247.204 1087.89 249.802 1082.69 254.997C1077.76 259.932 1074.64 268.633 1073.34 281.101C1073.34 283.179 1074.38 284.218 1076.46 284.218H1131.39ZM1103.73 198.502C1169.71 198.502 1202.82 233.308 1203.08 302.92C1203.08 309.154 1200.75 314.478 1196.07 318.894C1191.4 323.05 1185.81 325.128 1179.32 325.128H1077.24C1074.9 325.128 1073.99 326.297 1074.51 328.635C1076.85 339.544 1081.91 347.206 1089.7 351.622C1097.76 356.038 1110.22 358.246 1127.11 358.246C1137.76 358.246 1150.75 356.687 1166.07 353.57C1171.52 352.271 1176.46 353.44 1180.88 357.077C1185.29 360.454 1187.5 364.999 1187.5 370.713V376.947C1187.5 383.441 1185.42 389.415 1181.27 394.87C1177.37 400.065 1172.3 403.182 1166.07 404.221C1150.23 407.338 1133.34 408.896 1115.42 408.896C1078.54 408.896 1050.09 399.935 1030.09 382.012C1010.35 363.83 1000.48 337.726 1000.48 303.699C1000.48 269.932 1009.31 243.957 1026.98 225.775C1044.64 207.593 1070.22 198.502 1103.73 198.502ZM1299.73 227.723C1315.84 208.242 1335.71 198.502 1359.34 198.502C1382.98 198.502 1399.86 205.255 1409.99 218.762C1420.38 232.269 1425.58 255.386 1425.58 288.114V382.792C1425.58 388.766 1423.37 393.961 1418.95 398.376C1414.54 402.792 1409.34 405 1403.37 405H1375.71C1369.73 405 1364.54 402.792 1360.12 398.376C1355.71 393.961 1353.5 388.766 1353.5 382.792V288.114C1353.5 276.166 1351.81 267.984 1348.43 263.568C1345.06 259.152 1338.95 256.945 1330.12 256.945C1322.85 256.945 1316.09 259.802 1309.86 265.516C1303.89 271.231 1300.9 277.465 1300.9 284.218V382.792C1300.9 388.766 1298.69 393.961 1294.28 398.376C1289.86 402.792 1284.67 405 1278.69 405H1249.08C1243.11 405 1237.91 402.792 1233.5 398.376C1229.08 393.961 1226.87 388.766 1226.87 382.792V224.606C1226.87 218.632 1229.08 213.437 1233.5 209.021C1237.91 204.606 1243.11 202.398 1249.08 202.398H1275.57C1281.81 202.398 1287.13 204.606 1291.55 209.021C1295.96 213.177 1298.3 218.372 1298.56 224.606V227.723C1298.56 227.983 1298.69 228.113 1298.95 228.113C1299.47 228.113 1299.73 227.983 1299.73 227.723Z" fill="white"/>
</svg>
